<?xml version="1.0" encoding="UTF-8" standalone="no"?><!DOCTYPE svg PUBLIC "-//W3C//DTD SVG 1.1//EN" "http://www.w3.org/Graphics/SVG/1.1/DTD/svg11.dtd"><svg width="100%" height="100%" viewBox="0 0 759 231" version="1.1" xmlns="http://www.w3.org/2000/svg" xmlns:xlink="http://www.w3.org/1999/xlink" xml:space="preserve" xmlns:serif="http://www.serif.com/" style="fill-rule:evenodd;clip-rule:evenodd;stroke-linejoin:round;stroke-miterlimit:2;"><path d="M-0,14.4l127.2,0l-0,18l-107.4,0l-0,75.6l99.9,0l-0,18l-99.9,0l-0,100.8l-19.8,0l-0,-212.4Z" style="fill:#fa809a;fill-rule:nonzero;"/><path d="M155.7,88.2l18,0l0,138.6l-18,0l0,-138.6Zm-4.5,-54.9c0,-3.8 1.3,-7 3.9,-9.6c2.6,-2.6 5.8,-3.9 9.6,-3.9c3.8,-0 7,1.3 9.6,3.9c2.6,2.6 3.9,5.8 3.9,9.6c0,3.8 -1.3,7 -3.9,9.6c-2.6,2.6 -5.8,3.9 -9.6,3.9c-3.8,-0 -7,-1.3 -9.6,-3.9c-2.6,-2.6 -3.9,-5.8 -3.9,-9.6Z" style="fill:#fa809a;fill-rule:nonzero;"/><path d="M215.7,127.2c0,-2.6 -0.1,-5.75 -0.3,-9.45c-0.2,-3.7 -0.35,-7.45 -0.45,-11.25c-0.1,-3.8 -0.25,-7.35 -0.45,-10.65c-0.2,-3.3 -0.3,-5.85 -0.3,-7.65l18,0c0.2,5.2 0.35,10.2 0.45,15c0.1,4.8 0.35,7.9 0.75,9.3l0.9,0c3.6,-7.6 9.6,-14.15 18,-19.65c8.4,-5.5 18.2,-8.25 29.4,-8.25c10.8,0 19.6,1.7 26.4,5.1c6.8,3.4 12.15,7.85 16.05,13.35c3.9,5.5 6.6,11.85 8.1,19.05c1.5,7.2 2.25,14.6 2.25,22.2l0,82.5l-18,0l0,-81.6c0,-5.6 -0.5,-11.05 -1.5,-16.35c-1,-5.3 -2.75,-10.05 -5.25,-14.25c-2.5,-4.2 -6,-7.55 -10.5,-10.05c-4.5,-2.5 -10.35,-3.75 -17.55,-3.75c-6.6,0 -12.85,1.15 -18.75,3.45c-5.9,2.3 -11,5.8 -15.3,10.5c-4.3,4.7 -7.7,10.6 -10.2,17.7c-2.5,7.1 -3.75,15.45 -3.75,25.05l0,69.3l-18,0l0,-99.6Z" style="fill:#fa809a;fill-rule:nonzero;"/><path d="M376.5,88.2l18,0l-0,138.6l-18,0l-0,-138.6Zm-4.5,-54.9c-0,-3.8 1.3,-7 3.9,-9.6c2.6,-2.6 5.8,-3.9 9.6,-3.9c3.8,-0 7,1.3 9.6,3.9c2.6,2.6 3.9,5.8 3.9,9.6c-0,3.8 -1.3,7 -3.9,9.6c-2.6,2.6 -5.8,3.9 -9.6,3.9c-3.8,-0 -7,-1.3 -9.6,-3.9c-2.6,-2.6 -3.9,-5.8 -3.9,-9.6Z" style="fill:#fa809a;fill-rule:nonzero;"/><path d="M436.8,191.4c3.8,7.4 9.4,13.05 16.8,16.95c7.4,3.9 15.2,5.85 23.4,5.85c3.8,0 7.6,-0.6 11.4,-1.8c3.8,-1.2 7.2,-2.9 10.2,-5.1c3,-2.2 5.45,-4.85 7.35,-7.95c1.9,-3.1 2.85,-6.65 2.85,-10.65c0,-6.4 -2.05,-11.2 -6.15,-14.4c-4.1,-3.2 -9.15,-5.7 -15.15,-7.5c-6,-1.8 -12.6,-3.35 -19.8,-4.65c-7.2,-1.3 -13.8,-3.3 -19.8,-6c-6,-2.7 -11.05,-6.45 -15.15,-11.25c-4.1,-4.8 -6.15,-11.6 -6.15,-20.4c-0,-6.8 1.4,-12.7 4.2,-17.7c2.8,-5 6.45,-9.15 10.95,-12.45c4.5,-3.3 9.55,-5.75 15.15,-7.35c5.6,-1.6 11.3,-2.4 17.1,-2.4c11.4,0 21.25,2.1 29.55,6.3c8.3,4.2 14.75,10.8 19.35,19.8l-16.2,9.6c-3.4,-6.4 -7.65,-11.25 -12.75,-14.55c-5.1,-3.3 -11.75,-4.95 -19.95,-4.95c-3.2,0 -6.55,0.5 -10.05,1.5c-3.5,1 -6.65,2.4 -9.45,4.2c-2.8,1.8 -5.15,4.1 -7.05,6.9c-1.9,2.8 -2.85,6 -2.85,9.6c-0,6.2 2.05,10.8 6.15,13.8c4.1,3 9.15,5.35 15.15,7.05c6,1.7 12.6,3.15 19.8,4.35c7.2,1.2 13.8,3.15 19.8,5.85c6,2.7 11.05,6.6 15.15,11.7c4.1,5.1 6.15,12.35 6.15,21.75c-0,7.2 -1.35,13.45 -4.05,18.75c-2.7,5.3 -6.4,9.75 -11.1,13.35c-4.7,3.6 -10.05,6.3 -16.05,8.1c-6,1.8 -12.3,2.7 -18.9,2.7c-12,0 -22.95,-2.3 -32.85,-6.9c-9.9,-4.6 -17.55,-11.7 -22.95,-21.3l15.9,-10.8Z" style="fill:#fa809a;fill-rule:nonzero;"/><path d="M555.3,0l18,0l-0,112.5l0.6,0c3.6,-7.6 9.6,-14.15 18,-19.65c8.4,-5.5 18.2,-8.25 29.4,-8.25c10.8,0 19.6,1.7 26.4,5.1c6.8,3.4 12.15,7.85 16.05,13.35c3.9,5.5 6.6,11.85 8.1,19.05c1.5,7.2 2.25,14.6 2.25,22.2l-0,82.5l-18,0l-0,-81.6c0,-5.6 -0.5,-11.05 -1.5,-16.35c-1,-5.3 -2.75,-10.05 -5.25,-14.25c-2.5,-4.2 -6,-7.55 -10.5,-10.05c-4.5,-2.5 -10.35,-3.75 -17.55,-3.75c-6.6,0 -12.85,1.15 -18.75,3.45c-5.9,2.3 -11,5.8 -15.3,10.5c-4.3,4.7 -7.7,10.6 -10.2,17.7c-2.5,7.1 -3.75,15.45 -3.75,25.05l-0,69.3l-18,0l-0,-226.8Z" style="fill:#fa809a;fill-rule:nonzero;"/><path d="M753.6,171l-18,0l0,-156.6l18,0l0,156.6Zm-23.4,43.2c0,-4 1.4,-7.4 4.2,-10.2c2.8,-2.8 6.2,-4.2 10.2,-4.2c4,0 7.4,1.4 10.2,4.2c2.8,2.8 4.2,6.2 4.2,10.2c-0,4 -1.4,7.4 -4.2,10.2c-2.8,2.8 -6.2,4.2 -10.2,4.2c-4,0 -7.4,-1.4 -10.2,-4.2c-2.8,-2.8 -4.2,-6.2 -4.2,-10.2Z" style="fill:#fa809a;fill-rule:nonzero;"/></svg>