<?xml version="1.0" encoding="UTF-8" standalone="no"?><!DOCTYPE svg PUBLIC "-//W3C//DTD SVG 1.1//EN" "http://www.w3.org/Graphics/SVG/1.1/DTD/svg11.dtd"><svg width="100%" height="100%" viewBox="0 0 9880 9155" version="1.1" xmlns="http://www.w3.org/2000/svg" xmlns:xlink="http://www.w3.org/1999/xlink" xml:space="preserve" xmlns:serif="http://www.serif.com/" style="fill-rule:evenodd;clip-rule:evenodd;stroke-linejoin:round;stroke-miterlimit:2;"><path d="M4156.23,3474.62l-2000.99,-2000.99c-81.359,-81.36 -81.359,-213.269 0,-294.628c0,-0 550.871,-550.871 879.238,-879.238c204.59,-204.59 513.549,-263.104 778.778,-147.495c581.291,253.371 1809.36,788.658 2160.05,941.511c86.903,37.876 165.921,91.73 232.955,158.763l3609.31,3609.31l-0.177,-0.159c36.187,36.069 58.044,84.427 60.898,135.968c3.277,59.169 -18.798,116.933 -60.7,158.835l-1841.42,1841.42c-81.359,81.359 -213.269,81.359 -294.628,0l-2001.06,-2001.06l-4095.2,4095.2l-0.044,-0.107c-38.251,38.415 -90.902,61.126 -147.266,61.126l-0.004,0c-56.363,0 -109.015,-22.711 -147.265,-61.126l-0.045,0.107l-1227.62,-1227.62c-81.36,-81.359 -81.36,-213.268 -0,-294.628l4095.2,-4095.2Zm294.628,294.627l-3947.89,3947.89l932.987,932.987l3947.89,-3947.89l-932.987,-932.987Zm1522.24,932.987l1853.75,1853.75l1546.8,-1546.8l-3462.01,-3462.01c-30.158,-30.158 -65.707,-54.387 -104.808,-71.429c-350.688,-152.854 -1578.76,-688.142 -2160.05,-941.514c-108.187,-47.157 -234.211,-23.288 -317.662,60.164l-731.924,731.924l1853.67,1853.67l397.878,-397.878c39.07,-39.07 92.061,-61.019 147.314,-61.019c55.254,-0 108.244,21.949 147.314,61.019l1227.61,1227.62c81.359,81.359 81.359,213.268 0,294.628l-397.875,397.875Zm-1227.62,-1227.61l932.987,932.986l250.562,-250.562l-932.985,-932.988l-250.564,250.564Z" style="fill:#2c3e50;"/></svg>