<?xml version="1.0" encoding="UTF-8" standalone="no"?><!DOCTYPE svg PUBLIC "-//W3C//DTD SVG 1.1//EN" "http://www.w3.org/Graphics/SVG/1.1/DTD/svg11.dtd"><svg width="100%" height="100%" viewBox="0 0 2001 346" version="1.1" xmlns="http://www.w3.org/2000/svg" xmlns:xlink="http://www.w3.org/1999/xlink" xml:space="preserve" xmlns:serif="http://www.serif.com/" style="fill-rule:evenodd;clip-rule:evenodd;stroke-linejoin:round;stroke-miterlimit:2;"><g><path d="M521.197,258.945l-21.6,0l-0,-192.6l-71.1,0l-0,-19.8l163.8,0l-0,19.8l-71.1,0l-0,192.6Z" style="fill:#34475a;fill-rule:nonzero;"/><path d="M627.997,234.645l42.9,-116.1l24,0l-70.2,177c-4.2,10.8 -9.55,19.4 -16.05,25.8c-6.5,6.4 -15.85,9.6 -28.05,9.6c-3,0 -6.05,-0.1 -9.15,-0.3c-3.1,-0.2 -6.15,-0.8 -9.15,-1.8l2.1,-19.2c4.2,2.2 9.2,3.3 15,3.3c7,0 12.5,-2.2 16.5,-6.6c4,-4.4 7.5,-10.6 10.5,-18.6l10.2,-27l-57.6,-142.2l24.9,0l44.1,116.1Z" style="fill:#34475a;fill-rule:nonzero;"/><path d="M848.497,188.745c-0,-7.8 -1.25,-15.1 -3.75,-21.9c-2.5,-6.8 -6.05,-12.7 -10.65,-17.7c-4.6,-5 -10.15,-8.95 -16.65,-11.85c-6.5,-2.9 -13.85,-4.35 -22.05,-4.35c-8.2,0 -15.7,1.45 -22.5,4.35c-6.8,2.9 -12.7,6.85 -17.7,11.85c-5,5 -8.9,10.9 -11.7,17.7c-2.8,6.8 -4.2,14.1 -4.2,21.9c-0,7.8 1.4,15.1 4.2,21.9c2.8,6.8 6.7,12.7 11.7,17.7c5,5 10.9,8.95 17.7,11.85c6.8,2.9 14.3,4.35 22.5,4.35c8.2,0 15.55,-1.45 22.05,-4.35c6.5,-2.9 12.05,-6.85 16.65,-11.85c4.6,-5 8.15,-10.9 10.65,-17.7c2.5,-6.8 3.75,-14.1 3.75,-21.9Zm-128.1,-70.2l19.8,0l-0,23.4l0.6,0c3.2,-4.8 7,-8.9 11.4,-12.3c4.4,-3.4 9,-6.2 13.8,-8.4c4.8,-2.2 9.75,-3.8 14.85,-4.8c5.1,-1 9.95,-1.5 14.55,-1.5c11,0 21.05,1.85 30.15,5.55c9.1,3.7 16.95,8.85 23.55,15.45c6.6,6.6 11.75,14.4 15.45,23.4c3.7,9 5.55,18.8 5.55,29.4c-0,10.6 -1.85,20.4 -5.55,29.4c-3.7,9 -8.85,16.8 -15.45,23.4c-6.6,6.6 -14.45,11.75 -23.55,15.45c-9.1,3.7 -19.15,5.55 -30.15,5.55c-4.6,0 -9.45,-0.5 -14.55,-1.5c-5.1,-1 -10.05,-2.6 -14.85,-4.8c-4.8,-2.2 -9.4,-5 -13.8,-8.4c-4.4,-3.4 -8.2,-7.5 -11.4,-12.3l-0.6,0l-0,109.8l-19.8,0l-0,-226.8Z" style="fill:#34475a;fill-rule:nonzero;"/><path d="M932.497,64.545c-0,4.2 -1.5,7.65 -4.5,10.35c-3,2.7 -6.3,4.05 -9.9,4.05c-3.6,0 -6.9,-1.35 -9.9,-4.05c-3,-2.7 -4.5,-6.15 -4.5,-10.35c-0,-4.2 1.5,-7.65 4.5,-10.35c3,-2.7 6.3,-4.05 9.9,-4.05c3.6,0 6.9,1.35 9.9,4.05c3,2.7 4.5,6.15 4.5,10.35Zm-4.5,194.4l-19.8,0l-0,-140.4l19.8,0l-0,140.4Z" style="fill:#34475a;fill-rule:nonzero;"/><path d="M994.597,118.545c0.4,3.8 0.65,7.55 0.75,11.25c0.1,3.7 0.15,7.45 0.15,11.25l0.6,0c2.2,-3.8 5,-7.3 8.4,-10.5c3.4,-3.2 7.2,-5.95 11.4,-8.25c4.2,-2.3 8.65,-4.1 13.35,-5.4c4.7,-1.3 9.35,-1.95 13.95,-1.95c18,0 31.3,4.75 39.9,14.25c8.6,9.5 12.9,23.05 12.9,40.65l-0,89.1l-19.8,0l-0,-77.7c-0,-15.6 -2.7,-27.55 -8.1,-35.85c-5.4,-8.3 -15.4,-12.45 -30,-12.45c-1,0 -3.8,0.4 -8.4,1.2c-4.6,0.8 -9.45,3 -14.55,6.6c-5.1,3.6 -9.65,9 -13.65,16.2c-4,7.2 -6,17.2 -6,30l-0,72l-19.8,0l-0,-109.5c-0,-3.8 -0.15,-8.6 -0.45,-14.4c-0.3,-5.8 -0.65,-11.3 -1.05,-16.5l20.4,0Z" style="fill:#34475a;fill-rule:nonzero;"/><path d="M1156.9,186.945c-0,7.4 1.35,14.35 4.05,20.85c2.7,6.5 6.4,12.2 11.1,17.1c4.7,4.9 10.2,8.8 16.5,11.7c6.3,2.9 13.15,4.35 20.55,4.35c7.2,0 14.05,-1.3 20.55,-3.9c6.5,-2.6 12.25,-6.25 17.25,-10.95c5,-4.7 8.85,-10.35 11.55,-16.95c2.7,-6.6 3.95,-14 3.75,-22.2c-0,-7.4 -1.2,-14.35 -3.6,-20.85c-2.4,-6.5 -5.9,-12.2 -10.5,-17.1c-4.6,-4.9 -10.2,-8.8 -16.8,-11.7c-6.6,-2.9 -14,-4.35 -22.2,-4.35c-7.4,0 -14.25,1.45 -20.55,4.35c-6.3,2.9 -11.8,6.8 -16.5,11.7c-4.7,4.9 -8.4,10.6 -11.1,17.1c-2.7,6.5 -4.05,13.45 -4.05,20.85Zm-3.6,100.2c5.8,7.8 13.35,14.05 22.65,18.75c9.3,4.7 19.65,7.05 31.05,7.05c10,0 18.5,-1.45 25.5,-4.35c7,-2.9 12.65,-6.85 16.95,-11.85c4.3,-5 7.4,-10.85 9.3,-17.55c1.9,-6.7 2.85,-13.85 2.85,-21.45l-0,-25.2l-0.6,0c-6.4,9.6 -14.2,16.4 -23.4,20.4c-9.2,4 -18.9,6 -29.1,6c-10.2,0 -19.75,-1.8 -28.65,-5.4c-8.9,-3.6 -16.65,-8.55 -23.25,-14.85c-6.6,-6.3 -11.8,-13.85 -15.6,-22.65c-3.8,-8.8 -5.7,-18.3 -5.7,-28.5c-0,-10.2 1.8,-19.7 5.4,-28.5c3.6,-8.8 8.55,-16.5 14.85,-23.1c6.3,-6.6 13.8,-11.75 22.5,-15.45c8.7,-3.7 18.25,-5.55 28.65,-5.55c4.2,0 8.65,0.4 13.35,1.2c4.7,0.8 9.4,2.2 14.1,4.2c4.7,2 9.35,4.75 13.95,8.25c4.6,3.5 8.9,7.95 12.9,13.35l0.6,0l-0,-23.4l19.8,0l-0,139.2c-0,7.6 -0.95,15.7 -2.85,24.3c-1.9,8.6 -5.6,16.5 -11.1,23.7c-5.5,7.2 -13.15,13.2 -22.95,18c-9.8,4.8 -22.6,7.2 -38.4,7.2c-14,0 -26.5,-2.3 -37.5,-6.9c-11,-4.6 -21,-11.7 -30,-21.3l14.7,-15.6Z" style="fill:#34475a;fill-rule:nonzero;"/><path d="M1391.2,136.545l-33.3,0l-0,122.4l-19.8,0l-0,-122.4l-29.7,0l-0,-18l29.7,0l-0,-38.4c-0,-18.6 4.3,-31.85 12.9,-39.75c8.6,-7.9 20,-11.85 34.2,-11.85c2.8,0 5.65,0.2 8.55,0.6c2.9,0.4 5.75,0.9 8.55,1.5l-3.6,18c-2.4,-0.6 -4.9,-1.1 -7.5,-1.5c-2.6,-0.4 -5.2,-0.6 -7.8,-0.6c-5.4,0 -9.8,0.9 -13.2,2.7c-3.4,1.8 -6,4.35 -7.8,7.65c-1.8,3.3 -3,7.15 -3.6,11.55c-0.6,4.4 -0.9,9.1 -0.9,14.1l-0,36l33.3,0l-0,18Z" style="fill:#34475a;fill-rule:nonzero;"/><path d="M1534.9,188.745c-0,-7.8 -1.25,-15.1 -3.75,-21.9c-2.5,-6.8 -6.05,-12.7 -10.65,-17.7c-4.6,-5 -10.15,-8.95 -16.65,-11.85c-6.5,-2.9 -13.85,-4.35 -22.05,-4.35c-8.2,0 -15.55,1.45 -22.05,4.35c-6.5,2.9 -12,6.85 -16.5,11.85c-4.5,5 -8,10.9 -10.5,17.7c-2.5,6.8 -3.75,14.1 -3.75,21.9c-0,7.8 1.25,15.1 3.75,21.9c2.5,6.8 6,12.7 10.5,17.7c4.5,5 10,8.95 16.5,11.85c6.5,2.9 13.85,4.35 22.05,4.35c8.2,0 15.55,-1.45 22.05,-4.35c6.5,-2.9 12.05,-6.85 16.65,-11.85c4.6,-5 8.15,-10.9 10.65,-17.7c2.5,-6.8 3.75,-14.1 3.75,-21.9Zm21.6,0c-0,10.6 -1.85,20.4 -5.55,29.4c-3.7,9 -8.85,16.8 -15.45,23.4c-6.6,6.6 -14.45,11.75 -23.55,15.45c-9.1,3.7 -19.15,5.55 -30.15,5.55c-10.8,0 -20.75,-1.85 -29.85,-5.55c-9.1,-3.7 -16.95,-8.85 -23.55,-15.45c-6.6,-6.6 -11.75,-14.4 -15.45,-23.4c-3.7,-9 -5.55,-18.8 -5.55,-29.4c-0,-10.6 1.85,-20.4 5.55,-29.4c3.7,-9 8.85,-16.8 15.45,-23.4c6.6,-6.6 14.45,-11.75 23.55,-15.45c9.1,-3.7 19.05,-5.55 29.85,-5.55c11,0 21.05,1.85 30.15,5.55c9.1,3.7 16.95,8.85 23.55,15.45c6.6,6.6 11.75,14.4 15.45,23.4c3.7,9 5.55,18.8 5.55,29.4Z" style="fill:#34475a;fill-rule:nonzero;"/><path d="M1594.6,162.345c-0,-6.2 -0.15,-12.5 -0.45,-18.9c-0.3,-6.4 -0.55,-14.7 -0.75,-24.9l19.5,0l-0,26.1l0.6,0c1.4,-3.8 3.4,-7.45 6,-10.95c2.6,-3.5 5.75,-6.65 9.45,-9.45c3.7,-2.8 8,-5.05 12.9,-6.75c4.9,-1.7 10.45,-2.55 16.65,-2.55c5.6,0 10.5,0.6 14.7,1.8l-3.9,19.5c-2.6,-1 -6.4,-1.5 -11.4,-1.5c-7.6,0 -14.1,1.45 -19.5,4.35c-5.4,2.9 -9.9,6.6 -13.5,11.1c-3.6,4.5 -6.25,9.35 -7.95,14.55c-1.7,5.2 -2.55,10.2 -2.55,15l-0,79.2l-19.8,0l-0,-96.6Z" style="fill:#34475a;fill-rule:nonzero;"/><path d="M1701.1,186.945c-0,7.4 1.35,14.35 4.05,20.85c2.7,6.5 6.4,12.2 11.1,17.1c4.7,4.9 10.2,8.8 16.5,11.7c6.3,2.9 13.15,4.35 20.55,4.35c7.2,0 14.05,-1.3 20.55,-3.9c6.5,-2.6 12.25,-6.25 17.25,-10.95c5,-4.7 8.85,-10.35 11.55,-16.95c2.7,-6.6 3.95,-14 3.75,-22.2c-0,-7.4 -1.2,-14.35 -3.6,-20.85c-2.4,-6.5 -5.9,-12.2 -10.5,-17.1c-4.6,-4.9 -10.2,-8.8 -16.8,-11.7c-6.6,-2.9 -14,-4.35 -22.2,-4.35c-7.4,0 -14.25,1.45 -20.55,4.35c-6.3,2.9 -11.8,6.8 -16.5,11.7c-4.7,4.9 -8.4,10.6 -11.1,17.1c-2.7,6.5 -4.05,13.45 -4.05,20.85Zm-3.6,100.2c5.8,7.8 13.35,14.05 22.65,18.75c9.3,4.7 19.65,7.05 31.05,7.05c10,0 18.5,-1.45 25.5,-4.35c7,-2.9 12.65,-6.85 16.95,-11.85c4.3,-5 7.4,-10.85 9.3,-17.55c1.9,-6.7 2.85,-13.85 2.85,-21.45l-0,-25.2l-0.6,0c-6.4,9.6 -14.2,16.4 -23.4,20.4c-9.2,4 -18.9,6 -29.1,6c-10.2,0 -19.75,-1.8 -28.65,-5.4c-8.9,-3.6 -16.65,-8.55 -23.25,-14.85c-6.6,-6.3 -11.8,-13.85 -15.6,-22.65c-3.8,-8.8 -5.7,-18.3 -5.7,-28.5c-0,-10.2 1.8,-19.7 5.4,-28.5c3.6,-8.8 8.55,-16.5 14.85,-23.1c6.3,-6.6 13.8,-11.75 22.5,-15.45c8.7,-3.7 18.25,-5.55 28.65,-5.55c4.2,0 8.65,0.4 13.35,1.2c4.7,0.8 9.4,2.2 14.1,4.2c4.7,2 9.35,4.75 13.95,8.25c4.6,3.5 8.9,7.95 12.9,13.35l0.6,0l-0,-23.4l19.8,0l-0,139.2c-0,7.6 -0.95,15.7 -2.85,24.3c-1.9,8.6 -5.6,16.5 -11.1,23.7c-5.5,7.2 -13.15,13.2 -22.95,18c-9.8,4.8 -22.6,7.2 -38.4,7.2c-14,0 -26.5,-2.3 -37.5,-6.9c-11,-4.6 -21,-11.7 -30,-21.3l14.7,-15.6Z" style="fill:#34475a;fill-rule:nonzero;"/><path d="M1979.2,177.945c-0,-13.4 -4,-24.25 -12,-32.55c-8,-8.3 -19.2,-12.45 -33.6,-12.45c-6.4,0 -12.6,1.25 -18.6,3.75c-6,2.5 -11.25,5.85 -15.75,10.05c-4.5,4.2 -8.1,9 -10.8,14.4c-2.7,5.4 -4.05,11 -4.05,16.8l94.8,0Zm-95.4,16.2c0.6,7 2.3,13.6 5.1,19.8c2.8,6.2 6.5,11.55 11.1,16.05c4.6,4.5 9.9,8.05 15.9,10.65c6,2.6 12.5,3.9 19.5,3.9c10.6,0 19.75,-2.45 27.45,-7.35c7.7,-4.9 13.55,-10.55 17.55,-16.95l15.3,12.6c-8.4,10.6 -17.65,18.2 -27.75,22.8c-10.1,4.6 -20.95,6.9 -32.55,6.9c-10.4,0 -20.05,-1.85 -28.95,-5.55c-8.9,-3.7 -16.55,-8.85 -22.95,-15.45c-6.4,-6.6 -11.45,-14.4 -15.15,-23.4c-3.7,-9 -5.55,-18.8 -5.55,-29.4c-0,-10.6 1.8,-20.4 5.4,-29.4c3.6,-9 8.6,-16.8 15,-23.4c6.4,-6.6 13.9,-11.75 22.5,-15.45c8.6,-3.7 17.9,-5.55 27.9,-5.55c10.6,0 20.1,1.9 28.5,5.7c8.4,3.8 15.45,8.85 21.15,15.15c5.7,6.3 10.05,13.7 13.05,22.2c3,8.5 4.5,17.55 4.5,27.15l-0,9l-117,0Z" style="fill:#34475a;fill-rule:nonzero;"/><path d="M152.415,123.986l-73.38,-73.379c-2.983,-2.984 -2.983,-7.821 0,-10.805c0,0 20.202,-20.201 32.243,-32.243c7.503,-7.502 18.833,-9.648 28.559,-5.409c21.317,9.292 66.352,28.922 79.213,34.527c3.187,1.389 6.084,3.364 8.543,5.822l132.359,132.359l-0.007,-0.006c1.327,1.323 2.129,3.096 2.233,4.986c0.12,2.17 -0.689,4.289 -2.226,5.825l-67.527,67.528c-2.984,2.983 -7.821,2.983 -10.805,-0l-73.382,-73.382l-150.177,150.177l-0.002,-0.004c-1.403,1.409 -3.333,2.242 -5.4,2.242l-0,-0c-2.067,-0 -3.998,-0.833 -5.401,-2.242l-0.002,0.004l-45.018,-45.018c-2.984,-2.984 -2.984,-7.821 -0,-10.805l150.177,-150.177l-0,0Zm10.804,10.805l-144.775,144.775l34.214,34.214l144.775,-144.775l-34.214,-34.214Zm55.823,34.214l67.98,67.98l56.724,-56.724l-126.958,-126.957c-1.106,-1.106 -2.409,-1.995 -3.843,-2.62c-12.861,-5.605 -57.896,-25.235 -79.213,-34.526c-3.967,-1.73 -8.589,-0.854 -11.649,2.206l-26.841,26.841l67.977,67.977l14.591,-14.591c1.433,-1.433 3.376,-2.238 5.402,-2.238c2.027,0 3.97,0.805 5.403,2.238l45.018,45.018c2.984,2.984 2.984,7.821 0,10.805l-14.591,14.591l0,-0Zm-45.019,-45.019l34.214,34.214l9.189,-9.188l-34.214,-34.214l-9.189,9.188Z" style="fill:#34475a;"/></g></svg>